<svg xmlns="http://www.w3.org/2000/svg" viewBox="0 0 96.5 50"><path d="M6.3 0h83.9c3.5 0 6.3 2.8 6.3 6.3v37.4c0 3.5-2.8 6.3-6.3 6.3H6.3A6.3 6.3 0 0 1 0 43.7V6.3C0 2.8 2.8 0 6.3 0Z" style="fill:#e11900"/><path d="M82.8 12.6V17H72.5v5.8h8v4.3h-8v6h10.3v4.5H66.7v-25h16.1Zm-43.1 0h4.7c.5 0 .9 0 1.2.3.3.2.6.5.7 1l4.9 13.4a46.7 46.7 0 0 1 1.3 4 24.8 24.8 0 0 1 1.1-4l4.9-13.5c0-.3.3-.6.6-.8a2 2 0 0 1 1.3-.4H65L55 37.7h-5.4l-10-25.1Zm-1.8 25.1H32V12.6h6v25.1ZM20.6 33h9.3v4.7H14.7V12.6h5.9V33Z" style="fill:#fff"/></svg>