<svg xmlns="http://www.w3.org/2000/svg" xml:space="preserve" style="enable-background:new 0 0 153 50" viewBox="0 0 153 50"><path d="M6.3 0h140.4c3.5 0 6.3 2.8 6.3 6.3v37.4c0 3.5-2.8 6.3-6.3 6.3H6.3A6.3 6.3 0 0 1 0 43.7V6.3C0 2.8 2.8 0 6.3 0z" style="fill:#0358a9"/><path d="M69.3 29.2v8.5h-5.9V12.4h8.9c1.6 0 3.1.2 4.6.6 1.2.4 2.2 1 3.2 1.7.8.7 1.4 1.6 1.8 2.6a10.3 10.3 0 0 1 0 6.8c-.4 1-1 2-1.9 2.7-.9.8-2 1.4-3.2 1.8-1.5.5-3 .7-4.6.6h-2.9zm0-4.4h3c1.2.1 2.4-.3 3.3-1.1.7-.9 1.1-1.9 1-3.1 0-.5-.1-1.1-.3-1.6-.2-.5-.4-.9-.8-1.2-.4-.4-.8-.6-1.3-.8-.6-.2-1.3-.3-1.9-.3h-3v8.1zm21 8.2h9.4v4.7H84.4V12.4h5.9V33zm21 0c.7 0 1.4-.1 2.1-.4.6-.2 1.1-.6 1.6-1.1.4-.5.8-1.1 1-1.8l.3-2.4v-15h5.9v15a10.6 10.6 0 0 1-3 7.7c-1 1-2.1 1.7-3.4 2.2a13 13 0 0 1-9.1 0 9.5 9.5 0 0 1-5.6-5.6c-.5-1.4-.8-2.8-.8-4.3v-15h5.9v15l.3 2.4a4 4 0 0 0 1 1.8c.4.5 1 .9 1.6 1.1a6 6 0 0 0 2.2.4zm28.3-15.5c-.1.2-.3.5-.6.6l-.7.2c-.3 0-.6-.1-.8-.3l-1.1-.6-1.3-.6c-.5-.2-1.1-.3-1.7-.2-.9-.1-1.8.2-2.5.7-.5.5-.8 1.2-.8 1.9 0 .5.2.9.5 1.2l1.2.9 1.8.7 2.1.7 2.1.9c.7.3 1.3.7 1.8 1.2.5.6 1 1.2 1.2 1.9a8.6 8.6 0 0 1-.1 6 8 8 0 0 1-4.6 4.5 12.3 12.3 0 0 1-6.3.5l-2.4-.7-2.2-1c-.6-.4-1.2-.8-1.7-1.4l1.7-2.8c.3-.4.7-.7 1.2-.7.4 0 .7.1 1 .3l1.2.7 1.5.7 2.1.3c.9.1 1.8-.2 2.5-.7.6-.6 1-1.4.9-2.2 0-.5-.2-1-.5-1.4-.3-.4-.8-.7-1.2-.9l-1.8-.6-2.1-.6a18 18 0 0 1-2.1-.8c-.7-.3-1.3-.7-1.8-1.2a6 6 0 0 1-1.2-2 7.9 7.9 0 0 1 .1-5.8 8 8 0 0 1 1.7-2.4c.8-.7 1.7-1.3 2.7-1.7 1.2-.5 2.5-.7 3.8-.6l2.3.2 2.1.5c.6.2 1.3.5 1.9.9.6.3 1.1.7 1.5 1.1l-1.4 2.6zM31.4 11.8l-.6-.5-19 26.2.6.5 1.4-2 7.8 4.4 6.4-5.1v-11l-4.1-2.1 7.5-10.4zm-8.3 22.9L17 31.6l3.4-4.6 2.7 1.4v6.3zm6.9-24-.6-.4-2.3 3.1-5.8-3.8-7.1 4.9V24l3.8 1.8-7.7 10.8.6.5L30 10.7zm-5.9 6.6L21.6 21 19 19.7v-5l5.1 2.6zm24.1 18.4 2.3 1.6-2.7 3.2-4.5-2.3V16.3l-2.9-1.5V40h-.9V11.8h.9v1.5l3.8-3.7 4 3.7zM35 9.6l3.5 2.3v28.6l-3.4-1.3-1.4.4V15l-2.2-1.7L35 9.6z" style="fill:#fff"/></svg>